PathFileType	3	(X/Y/Z)	uphill_walking_calibrated.trc																																																																												
DataRate	CameraRate	NumFrames	NumMarkers	Units	OrigDataRate	OrigDataStartFrame	OrigNumFrames																																																																								
100	100	14	26	mm	100	2700	556																																																																								
Frame#	Time	RAcromium			LAcromium			C7			Clavicle			VSacral			RASIS			LASIS			RHip			LHip			RKneeLat			RKneeMed			LKneeMed			LKneeLat			LShankFront			RShankFront			RAnkleLat			RAnkleMed			LAnkleMed			LAnkleLat			LToeLat			LToeTip			RToeTip			RToeLat			RHeel			LHeel			T10		
		X1	Y1	Z1	X2	Y2	Z2	X3	Y3	Z3	X4	Y4	Z4	X5	Y5	Z5	X6	Y6	Z6	X7	Y7	Z7	X8	Y8	Z8	X9	Y9	Z9	X10	Y10	Z10	X11	Y11	Z11	X12	Y12	Z12	X13	Y13	Z13	X14	Y14	Z14	X15	Y15	Z15	X16	Y16	Z16	X17	Y17	Z17	X18	Y18	Z18	X19	Y19	Z19	X20	Y20	Z20	X21	Y21	Z21	X22	Y22	Z22	X23	Y23	Z23	X24	Y24	Z24	X25	Y25	Z25	X26	Y26	Z26
2700	26.99	1209.0101	1393.0519	-468.15393	1192.7689	1407.2201	-726.58307	1176.5299	1461.6676	-592.22565	1221.9957	1267.2562	-611.1496	799.85956	1080.8544	-571.45917	970.18909	1007.3919	-457.93149	962.41901	998.91003	-715.22607	891.55975	949.76703	-407.73544	870.15912	941.2876	-768.38586	856.53027	493.88867	-468.89499	814.37939	499.448	-590.06995	907.90259	481.48502	-609.20154	913.15704	487.24316	-733.78912	878.07745	396.32379	-687.0766	876.70392	405.4147	-532.0816	632.61639	95.126305	-485.98718	650.79272	103.16197	-572.38177	533.35779	269.81293	-620.17377	493.70932	283.60214	-699.52667	512.80511	120.14724	-735.55487	560.96503	69.261162	-670.17169	836.90771	40.801182	-523.68066	766.70624	36.106842	-447.59091	539.64917	23.582748	-526.66431	402.8873	314.87195	-642.6969	929.11798	1251.636	-579.367
2701	27	1209.4019	1394.5247	-468.56827	1192.8075	1408.9435	-726.64929	1176.674	1463.4406	-592.40851	1222.2845	1268.8929	-611.33081	799.37732	1083.3104	-571.03552	969.0199	1009.5746	-456.47757	962.75916	1002.0629	-713.71289	888.93213	951.53357	-407.14453	871.39276	945.00464	-768.39935	844.19818	495.83481	-467.08597	802.96014	501.94632	-589.24036	923.4917	487.66772	-607.54199	930.00507	492.74072	-732.61359	897.3324	401.51886	-685.0426	863.79968	407.54935	-528.91437	622.37817	95.69635	-485.82733	640.97168	103.90376	-571.99585	552.7934	271.30475	-617.55127	512.60339	284.43555	-696.70258	537.13336	122.34034	-734.12317	586.58435	72.307877	-669.0528	826.98578	40.824547	-523.69922	756.815	35.729271	-447.75064	529.68567	23.855782	-526.94147	420.54947	312.56558	-639.97766	929.12115	1253.9445	-578.61816
2702	27.01	1209.7069	1395.5679	-468.88974	1192.6278	1410.2009	-726.73163	1176.6042	1464.7323	-592.54333	1222.3174	1270.1093	-611.60999	798.88202	1085.1173	-570.45422	967.99225	1011.2586	-455.11752	962.46326	1004.1055	-712.71002	886.50494	952.85443	-406.58963	872.34076	948.32306	-768.55646	832.08112	498.00824	-465.59686	792.04626	503.84628	-588.44122	939.50079	494.17566	-606.09644	946.14722	498.38446	-731.33685	916.13666	406.51828	-683.04822	849.336	408.08737	-528.45013	612.53583	95.947014	-485.646	630.90076	104.75785	-571.61279	572.54944	271.68756	-614.92725	532.02106	284.05911	-694.08801	562.44452	123.67237	-733.03729	613.73865	74.703056	-668.11499	817.10284	40.845791	-523.86298	747.02667	35.941856	-447.91928	519.78571	24.290209	-527.20508	438.57346	308.3627	-637.41608	928.98114	1255.7618	-577.82544
2703	27.02	1209.6025	1396.2089	-469.3082	1192.1521	1411.0067	-726.77991	1176.1157	1465.6808	-592.71967	1222.1702	1270.9135	-611.80591	798.12585	1086.4441	-569.64764	966.84924	1012.2775	-453.89746	962.19397	1006.186	-711.50708	884.30005	953.578	-406.03552	872.83508	951.28516	-768.95679	820.52765	499.2016	-464.30649	780.77081	505.85974	-588.09283	954.43524	500.457	-604.72864	962.72711	504.20212	-729.86914	934.63177	411.63358	-681.14752	837.71503	409.83456	-526.86261	602.6983	96.409401	-485.86896	621.04321	105.21523	-571.65143	592.53693	271.27219	-612.82214	551.6767	282.61734	-691.62292	588.80078	124.62417	-731.99622	642.18713	76.781113	-667.67126	807.00647	40.617214	-523.73755	736.672	36.205307	-447.77997	510.01434	24.292253	-527.55115	456.83716	302.5856	-635.36395	928.6087	1257.0636	-576.91656
2704	27.03	1209.1503	1396.506	-469.72223	1191.4207	1411.3469	-726.84613	1175.4792	1466.0656	-592.90515	1221.8202	1271.2351	-612.02301	797.24829	1087.08	-568.70117	965.56287	1012.6567	-452.76221	961.57324	1007.7884	-710.45789	882.29675	953.66766	-405.66367	873.11914	953.46442	-769.65375	809.06531	500.20911	-463.32819	769.71796	507.32404	-587.78027	968.90009	506.67596	-603.27124	978.33307	509.98795	-728.7395	952.63019	416.79266	-679.16693	825.53314	410.93512	-526.04456	592.73047	96.585464	-486.02805	611.04596	105.52457	-571.80652	612.81409	269.66229	-610.54041	571.64545	279.86932	-689.51782	616.20239	124.4082	-731.45282	671.24762	78.356606	-667.3866	797.21979	40.593613	-524.06226	726.49084	36.238918	-447.92813	499.88626	24.629318	-527.86945	475.66022	295.12177	-633.31842	927.96423	1257.8053	-575.90039
2705	27.04	1208.4324	1396.4497	-470.1377	1190.3868	1411.2561	-726.92975	1174.5891	1465.9897	-593.07935	1221.262	1271.1045	-612.18262	796.08307	1087.109	-567.61749	964.34698	1012.3366	-451.80377	960.73657	1008.9777	-709.39056	880.34979	953.09583	-405.20642	873.16302	955.29486	-770.70966	797.99286	500.83786	-462.43729	758.71808	508.39609	-587.47217	982.54932	512.84955	-601.98187	993.1358	515.94135	-727.84985	969.69269	421.83618	-677.72803	813.85968	411.68149	-525.48761	582.00964	96.890007	-486.18677	601.13171	105.6978	-571.97522	633.60583	266.76523	-608.8136	591.82166	275.78735	-687.59772	643.5896	123.5044	-731.27594	700.77106	78.891891	-667.88031	787.2489	41.068218	-523.69415	716.32642	36.336956	-448.13281	489.73721	24.857012	-528.18481	495.16336	286.24982	-631.42523	927.12921	1257.9578	-574.81293
2706	27.05	1207.5317	1396.0997	-470.45334	1189.0496	1410.6287	-727.09821	1173.4158	1465.4521	-593.25952	1220.4329	1270.5564	-612.3266	794.69543	1086.4143	-566.44958	962.54761	1011.2469	-450.80389	959.61255	1009.3447	-708.448	878.46478	951.98083	-404.71024	873.02087	956.70953	-772.00269	787.3136	500.98376	-461.68307	748.01752	508.88925	-586.90375	995.89661	518.8017	-600.78082	1008.2265	521.66113	-726.51733	987.69073	427.14545	-675.45081	801.68201	411.78802	-524.67987	571.71942	96.968727	-486.48975	591.20923	105.36889	-572.43317	654.89429	262.80148	-607.42365	612.27582	271.22696	-685.77881	671.12683	121.43171	-731.45923	730.19403	79.10527	-668.20435	777.03442	40.96624	-523.78937	706.04596	36.447601	-448.17258	479.53906	25.059937	-528.48749	515.39954	276.24033	-629.95551	926.13629	1257.4995	-573.66534
2707	27.06	1206.701	1395.4156	-470.4678	1187.5082	1409.5745	-727.26459	1172.1687	1464.4485	-593.34271	1219.3822	1269.4799	-612.43658	793.21802	1084.9695	-565.34149	961.13275	1009.6426	-450.22238	957.2774	1009.5344	-708.46295	876.56274	950.28204	-404.2182	872.75104	957.46417	-773.3194	777.07471	500.95273	-460.92828	737.41461	509.64624	-586.48486	1009.084	524.57043	-599.54633	1022.1076	527.42572	-725.57452	1004.1259	432.28949	-674.16949	790.98132	411.59772	-523.69214	561.35101	97.194977	-486.737	581.14032	105.5146	-572.58295	676.23267	257.3049	-606.41522	633.21857	265.46094	-685.01691	698.84119	118.89893	-731.60999	759.82825	78.656357	-668.69122	766.88995	40.925705	-523.8183	695.8399	36.399426	-448.40833	469.14182	25.510681	-528.68219	535.99939	265.34756	-628.6228	924.91101	1256.5734	-572.46954
2708	27.07	1205.6139	1394.2852	-470.4422	1185.7037	1408.111	-727.47906	1170.7134	1463.0203	-593.48938	1218.0295	1267.9855	-612.62537	790.8606	1083.1896	-564.08569	959.45941	1007.5557	-449.7601	955.63831	1008.9878	-707.8432	874.59363	948.20258	-403.7605	872.07642	957.71021	-774.51746	767.09753	500.66412	-460.38031	727.33813	509.81998	-586.1261	1021.0482	529.40094	-598.84924	1035.0172	533.10858	-724.91534	1020.1512	437.32874	-673.09296	780.2464	411.47025	-522.85193	551.17188	97.277786	-486.85602	571.03784	105.61758	-572.67603	697.8999	251.5175	-605.79016	654.5863	258.28098	-684.27332	727.00049	115.60813	-731.96509	789.70959	77.812622	-669.30963	756.71509	40.703239	-523.94458	685.65454	36.151932	-448.74503	458.92523	25.646511	-528.90424	557.20056	253.29062	-628.00745	923.53632	1255.1061	-571.25928
2709	27.08	1204.9979	1393.0627	-470.0311	1183.6899	1406.3319	-727.6626	1169.1553	1461.1979	-593.5376	1216.4642	1266.1241	-612.73523	788.57446	1080.7446	-563.16632	957.47656	1005.2023	-449.32217	954.4563	1007.9152	-706.90179	872.32629	946.09851	-403.17413	870.76483	957.29761	-775.46393	757.36865	500.13644	-459.7868	717.61682	509.97244	-585.42749	1032.6481	534.1546	-598.5025	1047.2074	538.35187	-724.45056	1035.0785	441.95694	-672.85809	769.25391	411.36987	-522.39532	541.10876	97.351219	-486.87817	561.04456	105.69316	-572.81219	719.86182	245.17744	-605.63257	676.24469	250.25159	-683.83606	755.61792	111.88815	-732.34338	819.89093	76.809929	-669.79437	746.53143	40.581192	-523.94769	675.5014	36.083511	-448.80103	448.616	26.109694	-529.13995	578.84955	240.24115	-627.89807	921.74719	1253.4156	-570.21527
2710	27.09	1203.025	1390.8905	-470.12686	1181.6766	1404.199	-727.78351	1167.4961	1458.9727	-593.59485	1214.6542	1263.9172	-612.7536	786.06683	1077.9203	-562.55109	955.29236	1002.5057	-448.7981	952.41571	1006.2288	-706.68927	868.06561	943.66608	-403.58237	868.90283	956.18933	-776.24518	748.07819	499.63321	-459.05798	708.41052	509.86243	-584.80786	1043.6512	538.67596	-598.52069	1058.3263	543.4978	-724.2923	1050.087	446.62454	-672.65466	759.4389	410.88028	-521.29956	530.96436	97.378685	-487.08322	551.14221	105.67358	-572.98114	741.71826	238.33174	-605.58673	698.17688	241.06221	-684.07959	784.4151	107.97687	-732.85248	850.41077	76.142235	-670.14099	736.41028	40.400112	-524.03656	665.35303	35.975113	-448.79901	438.38071	26.214149	-529.29785	600.98151	226.31966	-628.16772	920.07867	1251.1166	-569.25226
2711	27.1	1201.9028	1388.8502	-469.76736	1179.4742	1401.791	-727.7868	1165.7039	1456.4757	-593.53979	1212.7288	1261.4121	-612.67072	783.51697	1074.7235	-562.28796	952.8681	999.7182	-448.29004	950.5946	1004.137	-706.27618	865.08594	941.08026	-403.21774	867.56293	954.29926	-776.68671	739.35406	498.83029	-458.35379	699.90033	509.37839	-584.26031	1054.1239	542.80286	-598.81903	1068.2979	548.18097	-724.3172	1063.3445	450.81964	-672.9502	749.8288	410.01907	-520.56396	520.76038	97.364258	-487.30978	541.09271	105.83556	-573.0968	763.71552	230.86604	-605.96509	720.11267	231.39792	-684.27277	813.51959	103.97939	-733.30853	881.30725	75.817055	-670.51715	726.5816	40.12608	-523.85327	655.14557	35.5158	-448.68961	428.21057	26.399977	-529.54803	623.34906	211.2838	-628.75983	918.29639	1248.5338	-568.5036
2712	27.11	1199.8829	1386.1368	-469.76456	1177.1597	1399.1184	-727.86353	1163.896	1453.6511	-593.44678	1210.5236	1258.6958	-612.59546	780.88123	1071.3678	-562.42365	950.15643	996.92133	-447.59982	948.80518	1001.5624	-705.84192	861.86676	938.43665	-402.90442	866.89862	951.66449	-777.03107	731.17621	497.81186	-457.85736	691.94922	508.81653	-583.92249	1064.0858	546.64423	-598.93103	1077.8695	552.46442	-724.23267	1076.3829	454.95718	-673.40619	740.83002	408.82645	-519.75378	510.61243	97.470909	-487.61667	531.17352	105.8017	-573.21631	785.98676	223.44847	-606.52014	742.34857	221.43687	-684.92206	842.60779	99.78968	-733.94208	911.77917	75.494286	-671.07593	714.73419	39.057827	-523.85083	644.91553	35.327866	-448.78177	418.03513	26.529507	-529.76752	646.32648	196.5537	-629.74866	916.33228	1245.7266	-568.01221
2713	27.12	1198.1422	1383.3901	-469.56436	1174.8522	1396.2677	-727.89282	1162.1141	1450.6128	-593.38123	1208.2994	1255.8087	-612.39032	778.35071	1067.844	-562.93213	947.39551	994.14313	-446.75366	947.13397	998.39948	-705.3299	858.26385	935.89404	-402.67911	866.19299	948.8374	-777.50128	723.38715	496.53848	-457.42188	684.54388	507.67004	-583.41644	1073.1909	550.27753	-599.05566	1085.7208	556.37964	-724.45837	1088.4552	458.78424	-673.70123	732.33307	407.56216	-519.1142	500.59009	97.426071	-487.84915	521.27893	105.70834	-573.45825	807.90143	215.33282	-607.47546	764.7193	211.2363	-685.92981	871.53479	95.706795	-734.72205	941.59802	74.75692	-671.8515	705.12549	38.577755	-524.31531	634.67975	35.253044	-448.86288	407.8132	26.790081	-530.01099	669.7265	181.19974	-631.26257	914.55713	1242.5491	-567.71545
